<svg id="svg" version="1.1" xmlns="http://www.w3.org/2000/svg" xmlns:xlink="http://www.w3.org/1999/xlink" width="400" height="400" viewBox="0, 0, 400,400"><g id="svgg"><path id="path0" d="M159.800 37.600 C 159.936 37.820,160.757 38.000,161.624 38.000 C 162.491 38.000,163.200 37.820,163.200 37.600 C 163.200 37.380,162.379 37.200,161.376 37.200 C 160.263 37.200,159.649 37.356,159.800 37.600 M186.800 37.600 C 186.800 37.820,187.509 38.000,188.376 38.000 C 189.243 38.000,190.064 37.820,190.200 37.600 C 190.351 37.356,189.737 37.200,188.624 37.200 C 187.621 37.200,186.800 37.380,186.800 37.600 M153.600 38.400 C 153.600 38.620,154.050 38.800,154.600 38.800 C 155.150 38.800,155.600 38.620,155.600 38.400 C 155.600 38.180,155.150 38.000,154.600 38.000 C 154.050 38.000,153.600 38.180,153.600 38.400 M194.000 38.400 C 194.000 38.620,194.731 38.800,195.624 38.800 C 196.604 38.800,197.149 38.642,197.000 38.400 C 196.864 38.180,196.133 38.000,195.376 38.000 C 194.619 38.000,194.000 38.180,194.000 38.400 M148.800 39.200 C 148.800 39.420,149.250 39.600,149.800 39.600 C 150.350 39.600,150.800 39.420,150.800 39.200 C 150.800 38.980,150.350 38.800,149.800 38.800 C 149.250 38.800,148.800 38.980,148.800 39.200 M199.200 39.200 C 199.200 39.420,199.650 39.600,200.200 39.600 C 200.750 39.600,201.200 39.420,201.200 39.200 C 201.200 38.980,200.750 38.800,200.200 38.800 C 199.650 38.800,199.200 38.980,199.200 39.200 M144.400 40.000 C 144.400 40.220,144.940 40.400,145.600 40.400 C 146.260 40.400,146.800 40.220,146.800 40.000 C 146.800 39.780,146.260 39.600,145.600 39.600 C 144.940 39.600,144.400 39.780,144.400 40.000 M203.200 40.000 C 203.200 40.220,203.740 40.400,204.400 40.400 C 205.060 40.400,205.600 40.220,205.600 40.000 C 205.600 39.780,205.060 39.600,204.400 39.600 C 203.740 39.600,203.200 39.780,203.200 40.000 M141.200 40.800 C 141.200 41.020,141.650 41.200,142.200 41.200 C 142.750 41.200,143.200 41.020,143.200 40.800 C 143.200 40.580,142.750 40.400,142.200 40.400 C 141.650 40.400,141.200 40.580,141.200 40.800 M207.200 40.800 C 207.200 41.020,207.560 41.200,208.000 41.200 C 208.440 41.200,208.800 41.020,208.800 40.800 C 208.800 40.580,208.440 40.400,208.000 40.400 C 207.560 40.400,207.200 40.580,207.200 40.800 M138.000 41.600 C 138.000 41.820,138.450 42.000,139.000 42.000 C 139.550 42.000,140.000 41.820,140.000 41.600 C 140.000 41.380,139.550 41.200,139.000 41.200 C 138.450 41.200,138.000 41.380,138.000 41.600 M210.400 41.600 C 210.400 41.820,210.760 42.000,211.200 42.000 C 211.640 42.000,212.000 41.820,212.000 41.600 C 212.000 41.380,211.640 41.200,211.200 41.200 C 210.760 41.200,210.400 41.380,210.400 41.600 M136.092 41.890 C 135.373 41.979,134.889 42.220,135.016 42.426 C 135.385 43.024,137.092 42.858,137.345 42.200 C 137.471 41.870,137.536 41.629,137.487 41.664 C 137.439 41.699,136.812 41.801,136.092 41.890 M213.600 42.400 C 213.600 42.901,214.024 42.901,214.800 42.400 C 215.285 42.086,215.228 42.011,214.500 42.006 C 214.005 42.003,213.600 42.180,213.600 42.400 M132.678 42.656 C 132.304 43.029,132.755 43.600,133.424 43.600 C 133.741 43.600,134.000 43.330,134.000 43.000 C 134.000 42.398,133.156 42.178,132.678 42.656 M216.000 42.971 C 216.000 43.342,216.342 43.600,216.833 43.600 C 217.808 43.600,217.670 42.665,216.667 42.471 C 216.272 42.394,216.000 42.598,216.000 42.971 M130.198 43.603 C 129.896 44.091,130.994 44.575,131.581 44.212 C 131.811 44.069,132.000 43.783,132.000 43.576 C 132.000 43.072,130.513 43.094,130.198 43.603 M218.617 43.572 C 218.321 44.051,219.074 44.525,219.607 44.196 C 220.054 43.919,219.760 43.200,219.200 43.200 C 219.006 43.200,218.744 43.368,218.617 43.572 M127.800 44.400 C 127.664 44.620,127.934 44.800,128.400 44.800 C 128.866 44.800,129.136 44.620,129.000 44.400 C 128.864 44.180,128.594 44.000,128.400 44.000 C 128.206 44.000,127.936 44.180,127.800 44.400 M220.800 44.333 C 220.800 44.896,221.250 45.156,221.837 44.931 C 222.144 44.813,222.296 44.555,222.174 44.358 C 221.895 43.906,220.800 43.887,220.800 44.333 M125.600 45.200 C 125.600 45.420,125.960 45.600,126.400 45.600 C 126.840 45.600,127.200 45.420,127.200 45.200 C 127.200 44.980,126.840 44.800,126.400 44.800 C 125.960 44.800,125.600 44.980,125.600 45.200 M223.200 45.200 C 223.200 45.420,223.470 45.600,223.800 45.600 C 224.130 45.600,224.400 45.420,224.400 45.200 C 224.400 44.980,224.130 44.800,223.800 44.800 C 223.470 44.800,223.200 44.980,223.200 45.200 M225.200 46.000 C 225.200 46.220,225.560 46.400,226.000 46.400 C 226.440 46.400,226.800 46.220,226.800 46.000 C 226.800 45.780,226.440 45.600,226.000 45.600 C 225.560 45.600,225.200 45.780,225.200 46.000 M229.200 47.600 C 229.200 47.820,229.571 48.000,230.024 48.000 C 230.477 48.000,230.736 47.820,230.600 47.600 C 230.464 47.380,230.093 47.200,229.776 47.200 C 229.459 47.200,229.200 47.380,229.200 47.600 M231.200 48.400 C 231.200 48.620,231.470 48.800,231.800 48.800 C 232.130 48.800,232.400 48.620,232.400 48.400 C 232.400 48.180,232.130 48.000,231.800 48.000 C 231.470 48.000,231.200 48.180,231.200 48.400 M232.800 49.200 C 232.800 49.420,233.070 49.600,233.400 49.600 C 233.730 49.600,234.000 49.420,234.000 49.200 C 234.000 48.980,233.730 48.800,233.400 48.800 C 233.070 48.800,232.800 48.980,232.800 49.200 M234.800 49.957 C 234.800 50.201,235.160 50.400,235.600 50.400 C 236.040 50.400,236.400 50.580,236.400 50.800 C 236.400 51.020,236.760 51.200,237.200 51.200 C 237.640 51.200,238.000 51.380,238.000 51.600 C 238.000 51.820,238.270 52.000,238.600 52.000 C 238.930 52.000,239.200 51.820,239.200 51.600 C 239.200 51.380,238.930 51.200,238.600 51.200 C 238.270 51.200,238.000 51.041,238.000 50.847 C 238.000 50.652,237.595 50.405,237.100 50.298 C 236.605 50.191,235.885 49.970,235.500 49.809 C 235.078 49.631,234.800 49.690,234.800 49.957 M239.600 52.400 C 239.600 52.620,239.870 52.800,240.200 52.800 C 240.530 52.800,240.800 52.980,240.800 53.200 C 240.800 53.420,241.160 53.600,241.600 53.600 C 242.040 53.600,242.400 53.780,242.400 54.000 C 242.400 54.220,242.745 54.400,243.167 54.400 C 243.588 54.400,244.014 54.625,244.112 54.900 C 244.210 55.175,244.427 55.274,244.593 55.119 C 244.997 54.743,243.820 53.600,243.029 53.600 C 242.683 53.600,242.400 53.420,242.400 53.200 C 242.400 52.980,242.040 52.800,241.600 52.800 C 241.160 52.800,240.800 52.620,240.800 52.400 C 240.800 52.180,240.530 52.000,240.200 52.000 C 239.870 52.000,239.600 52.180,239.600 52.400 M248.200 57.200 C 248.064 57.420,248.323 57.600,248.776 57.600 C 249.229 57.600,249.600 57.420,249.600 57.200 C 249.600 56.980,249.341 56.800,249.024 56.800 C 248.707 56.800,248.336 56.980,248.200 57.200 M84.400 68.400 C 83.630 69.260,82.815 69.971,82.588 69.982 C 82.362 69.992,80.980 71.125,79.518 72.500 C 78.056 73.875,75.498 76.254,73.834 77.786 C 70.031 81.288,69.956 81.246,79.680 81.109 L 87.400 81.000 87.514 74.800 C 87.676 66.075,87.256 65.212,84.400 68.400 M262.643 67.433 C 262.289 68.356,262.345 130.321,262.700 130.526 C 262.984 130.690,268.439 124.583,282.957 107.845 C 284.081 106.550,285.182 105.290,285.403 105.045 C 285.625 104.800,286.975 103.254,288.403 101.610 C 289.832 99.965,291.212 98.391,291.470 98.111 C 291.729 97.831,292.224 97.711,292.570 97.844 C 293.465 98.187,293.351 97.485,292.400 96.800 C 291.960 96.483,291.600 95.981,291.600 95.685 C 291.600 95.109,289.825 92.784,287.700 90.577 C 286.985 89.834,286.400 89.058,286.400 88.852 C 286.400 87.879,268.522 70.000,267.550 70.000 C 267.323 70.000,266.446 69.280,265.600 68.400 C 263.969 66.702,263.040 66.398,262.643 67.433 M246.528 76.172 C 244.049 77.327,241.255 79.219,233.821 84.780 C 226.695 90.111,221.896 93.120,220.054 93.411 C 215.466 94.138,206.438 96.691,201.700 98.601 C 200.114 99.241,200.000 99.390,200.000 100.824 C 200.000 108.203,193.948 115.737,186.000 118.255 C 185.450 118.429,175.190 118.668,163.200 118.786 L 141.400 119.000 140.200 121.422 C 139.540 122.755,138.476 125.005,137.836 126.422 C 137.196 127.840,135.969 130.507,135.109 132.349 C 133.577 135.631,132.113 138.803,130.101 143.200 C 129.547 144.410,127.858 148.070,126.347 151.333 C 124.836 154.596,123.600 157.338,123.600 157.426 C 123.600 157.514,126.660 160.038,130.400 163.035 C 134.140 166.032,137.195 168.600,137.188 168.742 C 137.182 168.884,135.810 170.530,134.140 172.400 C 128.414 178.810,125.463 183.805,124.999 187.871 C 124.853 189.152,124.393 192.270,123.977 194.800 C 121.498 209.871,121.713 214.335,125.135 218.867 C 128.315 223.079,131.252 230.766,134.434 243.200 C 136.293 250.466,137.611 256.459,137.418 256.772 C 137.320 256.929,137.035 258.215,136.784 259.629 C 136.533 261.043,136.180 262.920,136.001 263.800 C 135.821 264.680,135.461 266.480,135.200 267.800 C 134.939 269.120,134.579 270.920,134.400 271.800 C 134.053 273.501,133.329 277.158,132.815 279.800 C 131.239 287.899,131.812 286.724,123.099 299.701 C 115.539 310.961,114.075 312.824,113.691 311.672 C 113.604 311.412,113.278 311.200,112.967 311.200 C 112.655 311.200,112.400 311.020,112.400 310.800 C 112.400 310.580,112.051 310.400,111.624 310.400 C 111.197 310.400,110.736 310.580,110.600 310.800 C 110.464 311.020,110.723 311.200,111.176 311.200 C 111.629 311.200,112.000 311.347,112.000 311.528 C 112.000 311.708,112.900 312.100,114.000 312.400 C 115.100 312.700,116.000 313.092,116.000 313.272 C 116.000 313.453,116.360 313.600,116.800 313.600 C 117.240 313.600,117.600 313.780,117.600 314.000 C 117.600 314.220,117.949 314.400,118.376 314.400 C 118.803 314.400,119.264 314.580,119.400 314.800 C 119.536 315.020,120.087 315.200,120.624 315.200 C 121.161 315.200,121.600 315.380,121.600 315.600 C 121.600 315.820,121.949 316.000,122.376 316.000 C 122.803 316.000,123.264 316.180,123.400 316.400 C 123.536 316.620,124.087 316.800,124.624 316.800 C 125.161 316.800,125.600 316.980,125.600 317.200 C 125.600 317.420,126.050 317.600,126.600 317.600 C 127.150 317.600,127.600 317.780,127.600 318.000 C 127.600 318.220,128.129 318.400,128.776 318.400 C 129.423 318.400,130.064 318.580,130.200 318.800 C 130.336 319.020,130.887 319.200,131.424 319.200 C 131.961 319.200,132.400 319.380,132.400 319.600 C 132.400 319.820,133.120 320.000,134.000 320.000 C 134.880 320.000,135.600 320.180,135.600 320.400 C 135.600 320.620,136.140 320.800,136.800 320.800 C 137.460 320.800,138.000 320.980,138.000 321.200 C 138.000 321.420,138.709 321.600,139.576 321.600 C 140.443 321.600,141.264 321.780,141.400 322.000 C 141.536 322.220,142.256 322.400,143.000 322.400 C 143.744 322.400,144.464 322.580,144.600 322.800 C 144.736 323.020,145.701 323.200,146.744 323.200 C 147.787 323.200,148.811 323.360,149.020 323.557 C 149.229 323.753,150.570 324.027,152.000 324.165 C 153.430 324.304,155.500 324.549,156.600 324.709 C 159.244 325.094,191.234 325.084,193.800 324.697 C 194.900 324.532,196.638 324.290,197.663 324.161 C 200.084 323.855,199.988 324.392,199.995 311.098 L 200.000 299.997 190.565 281.130 C 179.577 259.157,175.854 253.207,159.246 231.077 L 149.998 218.754 153.147 203.077 L 156.296 187.400 162.381 172.200 C 165.728 163.840,168.676 156.791,168.933 156.536 C 169.190 156.281,180.380 153.336,193.800 149.991 C 207.220 146.646,225.092 141.949,233.516 139.554 C 241.940 137.160,249.095 135.200,249.416 135.200 C 249.923 135.200,250.000 131.232,250.000 105.200 C 250.000 71.194,250.381 74.379,246.528 76.172 M293.200 99.000 C 293.200 99.330,293.380 99.600,293.600 99.600 C 293.820 99.600,294.000 99.870,294.000 100.200 C 294.000 100.530,294.180 100.800,294.400 100.800 C 294.620 100.800,294.800 101.030,294.800 101.312 C 294.800 101.593,295.160 102.083,295.600 102.400 C 296.040 102.717,296.400 103.220,296.400 103.517 C 296.400 104.217,297.557 105.376,297.907 105.026 C 298.056 104.878,298.002 104.631,297.788 104.478 C 297.574 104.325,297.144 103.705,296.832 103.100 C 296.520 102.495,296.115 102.000,295.932 102.000 C 295.750 102.000,295.600 101.680,295.600 101.288 C 295.600 100.897,295.240 100.317,294.800 100.000 C 294.360 99.683,294.000 99.193,294.000 98.912 C 294.000 98.630,293.820 98.400,293.600 98.400 C 293.380 98.400,293.200 98.670,293.200 99.000 M298.000 106.400 C 298.000 106.620,298.167 106.800,298.372 106.800 C 298.577 106.800,298.815 107.205,298.902 107.700 C 299.038 108.480,299.100 108.508,299.368 107.910 C 299.564 107.474,299.454 106.997,299.067 106.610 C 298.361 105.904,298.000 105.833,298.000 106.400 M300.400 110.200 C 300.400 110.530,300.580 110.800,300.800 110.800 C 301.020 110.800,301.200 111.160,301.200 111.600 C 301.200 112.040,301.346 112.400,301.525 112.400 C 301.704 112.400,302.098 113.030,302.400 113.800 C 302.702 114.570,303.096 115.200,303.275 115.200 C 303.454 115.200,303.600 115.560,303.600 116.000 C 303.600 116.440,303.780 116.800,304.000 116.800 C 304.220 116.800,304.400 117.065,304.400 117.388 C 304.400 117.711,304.763 118.623,305.208 119.414 C 305.652 120.205,305.911 121.020,305.784 121.226 C 305.657 121.432,305.833 121.600,306.176 121.600 C 306.973 121.600,306.963 121.487,306.000 119.600 C 305.560 118.738,305.200 117.755,305.200 117.416 C 305.200 117.077,305.020 116.800,304.800 116.800 C 304.580 116.800,304.400 116.455,304.400 116.033 C 304.400 115.612,304.265 115.207,304.100 115.133 C 303.811 115.005,302.282 112.366,301.417 110.503 C 300.940 109.476,300.400 109.315,300.400 110.200 M307.200 124.600 C 307.200 124.930,307.380 125.200,307.600 125.200 C 307.820 125.200,308.000 125.650,308.000 126.200 C 308.000 126.750,308.180 127.200,308.400 127.200 C 308.942 127.200,308.903 126.382,308.300 125.083 C 307.751 123.901,307.200 123.659,307.200 124.600 M308.800 128.200 C 308.800 128.530,308.980 128.800,309.200 128.800 C 309.420 128.800,309.600 128.530,309.600 128.200 C 309.600 127.870,309.420 127.600,309.200 127.600 C 308.980 127.600,308.800 127.870,308.800 128.200 M309.600 130.200 C 309.600 130.750,309.780 131.200,310.000 131.200 C 310.220 131.200,310.400 130.750,310.400 130.200 C 310.400 129.650,310.220 129.200,310.000 129.200 C 309.780 129.200,309.600 129.650,309.600 130.200 M310.400 132.400 C 310.400 132.840,310.580 133.200,310.800 133.200 C 311.020 133.200,311.200 132.840,311.200 132.400 C 311.200 131.960,311.020 131.600,310.800 131.600 C 310.580 131.600,310.400 131.960,310.400 132.400 M311.200 134.800 C 311.200 135.240,311.380 135.600,311.600 135.600 C 311.820 135.600,312.000 135.240,312.000 134.800 C 312.000 134.360,311.820 134.000,311.600 134.000 C 311.380 134.000,311.200 134.360,311.200 134.800 M312.000 137.200 C 312.000 137.640,312.180 138.000,312.400 138.000 C 312.620 138.000,312.800 137.640,312.800 137.200 C 312.800 136.760,312.620 136.400,312.400 136.400 C 312.180 136.400,312.000 136.760,312.000 137.200 M312.800 139.600 C 312.800 140.040,312.980 140.400,313.200 140.400 C 313.420 140.400,313.600 140.040,313.600 139.600 C 313.600 139.160,313.420 138.800,313.200 138.800 C 312.980 138.800,312.800 139.160,312.800 139.600 M313.600 142.200 C 313.600 142.750,313.778 143.200,313.996 143.200 C 314.213 143.200,314.354 142.750,314.308 142.200 C 314.263 141.650,314.085 141.200,313.913 141.200 C 313.741 141.200,313.600 141.650,313.600 142.200 M34.800 145.200 C 34.800 145.860,34.980 146.400,35.200 146.400 C 35.420 146.400,35.600 145.860,35.600 145.200 C 35.600 144.540,35.420 144.000,35.200 144.000 C 34.980 144.000,34.800 144.540,34.800 145.200 M314.400 145.000 C 314.400 145.550,314.580 146.000,314.800 146.000 C 315.020 146.000,315.200 145.550,315.200 145.000 C 315.200 144.450,315.020 144.000,314.800 144.000 C 314.580 144.000,314.400 144.450,314.400 145.000 M34.000 148.400 C 34.000 149.060,34.180 149.600,34.400 149.600 C 34.620 149.600,34.800 149.060,34.800 148.400 C 34.800 147.740,34.620 147.200,34.400 147.200 C 34.180 147.200,34.000 147.740,34.000 148.400 M315.200 148.200 C 315.200 148.750,315.380 149.200,315.600 149.200 C 315.820 149.200,316.000 148.750,316.000 148.200 C 316.000 147.650,315.820 147.200,315.600 147.200 C 315.380 147.200,315.200 147.650,315.200 148.200 M316.000 151.776 C 316.000 152.559,316.180 153.200,316.400 153.200 C 316.620 153.200,316.800 152.671,316.800 152.024 C 316.800 151.377,316.620 150.736,316.400 150.600 C 316.162 150.453,316.000 150.929,316.000 151.776 M33.467 151.067 C 33.048 151.485,33.155 153.200,33.600 153.200 C 33.820 153.200,34.000 152.660,34.000 152.000 C 34.000 150.757,33.919 150.615,33.467 151.067 M32.400 156.200 C 32.400 156.750,32.580 157.200,32.800 157.200 C 33.020 157.200,33.200 156.750,33.200 156.200 C 33.200 155.650,33.020 155.200,32.800 155.200 C 32.580 155.200,32.400 155.650,32.400 156.200 M31.867 159.867 C 31.443 160.290,31.557 162.800,32.000 162.800 C 32.220 162.800,32.400 162.080,32.400 161.200 C 32.400 159.565,32.334 159.400,31.867 159.867 M31.067 165.867 C 30.645 166.289,30.757 169.926,31.200 170.200 C 31.450 170.354,31.600 169.537,31.600 168.024 C 31.600 165.579,31.551 165.382,31.067 165.867 M30.800 194.376 C 30.800 195.463,30.980 196.464,31.200 196.600 C 31.448 196.753,31.600 196.004,31.600 194.624 C 31.600 193.401,31.420 192.400,31.200 192.400 C 30.980 192.400,30.800 193.289,30.800 194.376 M31.600 200.976 C 31.600 201.733,31.780 202.464,32.000 202.600 C 32.242 202.749,32.400 202.204,32.400 201.224 C 32.400 200.331,32.220 199.600,32.000 199.600 C 31.780 199.600,31.600 200.219,31.600 200.976 M32.400 206.176 C 32.400 206.713,32.580 207.264,32.800 207.400 C 33.033 207.544,33.200 207.137,33.200 206.424 C 33.200 205.751,33.020 205.200,32.800 205.200 C 32.580 205.200,32.400 205.639,32.400 206.176 M33.206 210.100 C 33.209 210.595,33.387 211.270,33.600 211.600 C 33.888 212.046,33.989 211.816,33.994 210.700 C 33.997 209.875,33.820 209.200,33.600 209.200 C 33.380 209.200,33.203 209.605,33.206 210.100 M34.000 213.976 C 34.000 214.403,34.180 214.864,34.400 215.000 C 34.627 215.140,34.800 214.804,34.800 214.224 C 34.800 213.661,34.620 213.200,34.400 213.200 C 34.180 213.200,34.000 213.549,34.000 213.976 M34.800 217.200 C 34.800 217.860,34.980 218.400,35.200 218.400 C 35.420 218.400,35.600 217.860,35.600 217.200 C 35.600 216.540,35.420 216.000,35.200 216.000 C 34.980 216.000,34.800 216.540,34.800 217.200 M35.867 219.467 C 35.452 219.882,35.553 221.200,36.000 221.200 C 36.220 221.200,36.400 220.750,36.400 220.200 C 36.400 219.153,36.308 219.026,35.867 219.467 M36.400 222.776 C 36.400 223.203,36.580 223.664,36.800 223.800 C 37.027 223.940,37.200 223.604,37.200 223.024 C 37.200 222.461,37.020 222.000,36.800 222.000 C 36.580 222.000,36.400 222.349,36.400 222.776 M37.200 225.200 C 37.200 225.640,37.380 226.000,37.600 226.000 C 37.820 226.000,38.000 225.640,38.000 225.200 C 38.000 224.760,37.820 224.400,37.600 224.400 C 37.380 224.400,37.200 224.760,37.200 225.200 M38.000 227.800 C 38.000 228.130,38.180 228.400,38.400 228.400 C 38.620 228.400,38.800 228.130,38.800 227.800 C 38.800 227.470,38.620 227.200,38.400 227.200 C 38.180 227.200,38.000 227.470,38.000 227.800 M38.800 230.000 C 38.800 230.440,38.980 230.800,39.200 230.800 C 39.420 230.800,39.600 230.440,39.600 230.000 C 39.600 229.560,39.420 229.200,39.200 229.200 C 38.980 229.200,38.800 229.560,38.800 230.000 M39.600 231.976 C 39.600 232.403,39.780 232.864,40.000 233.000 C 40.227 233.140,40.400 232.804,40.400 232.224 C 40.400 231.661,40.220 231.200,40.000 231.200 C 39.780 231.200,39.600 231.549,39.600 231.976 M40.400 234.200 C 40.400 234.530,40.580 234.800,40.800 234.800 C 41.020 234.800,41.200 234.530,41.200 234.200 C 41.200 233.870,41.020 233.600,40.800 233.600 C 40.580 233.600,40.400 233.870,40.400 234.200 M41.200 236.176 C 41.200 236.493,41.380 236.864,41.600 237.000 C 41.820 237.136,42.000 237.597,42.000 238.024 C 42.000 238.451,42.180 238.800,42.400 238.800 C 42.620 238.800,42.800 238.440,42.800 238.000 C 42.800 237.560,42.620 237.200,42.400 237.200 C 42.180 237.200,42.000 236.840,42.000 236.400 C 42.000 235.960,41.820 235.600,41.600 235.600 C 41.380 235.600,41.200 235.859,41.200 236.176 M42.654 239.798 C 42.781 240.126,43.045 240.296,43.242 240.174 C 43.807 239.825,43.660 239.200,43.013 239.200 C 42.656 239.200,42.515 239.435,42.654 239.798 M44.145 242.998 C 43.970 243.455,44.042 243.814,44.328 243.909 C 44.588 243.996,44.800 244.412,44.800 244.833 C 44.800 245.255,44.980 245.600,45.200 245.600 C 45.420 245.600,45.600 245.960,45.600 246.400 C 45.600 246.840,45.780 247.200,46.000 247.200 C 46.220 247.200,46.400 247.560,46.400 248.000 C 46.400 248.440,46.558 248.800,46.751 248.800 C 46.945 248.800,47.327 249.340,47.600 250.000 C 47.873 250.660,48.270 251.200,48.482 251.200 C 48.694 251.200,48.762 250.975,48.634 250.700 C 48.505 250.425,48.289 249.885,48.154 249.500 C 48.018 249.115,47.748 248.800,47.553 248.800 C 47.359 248.800,47.200 248.440,47.200 248.000 C 47.200 247.560,47.020 247.200,46.800 247.200 C 46.580 247.200,46.400 246.840,46.400 246.400 C 46.400 245.960,46.220 245.600,46.000 245.600 C 45.780 245.600,45.600 245.351,45.600 245.046 C 45.600 243.792,44.458 242.185,44.145 242.998 M48.800 252.200 C 48.800 252.530,48.980 252.800,49.200 252.800 C 49.420 252.800,49.600 252.530,49.600 252.200 C 49.600 251.870,49.420 251.600,49.200 251.600 C 48.980 251.600,48.800 251.870,48.800 252.200 M49.600 253.362 C 49.600 254.226,51.423 256.732,51.776 256.354 C 52.077 256.032,52.054 255.847,51.700 255.717 C 51.425 255.616,51.200 255.278,51.200 254.967 C 51.200 254.655,51.020 254.400,50.800 254.400 C 50.580 254.400,50.400 254.130,50.400 253.800 C 50.400 253.470,50.220 253.200,50.000 253.200 C 49.780 253.200,49.600 253.273,49.600 253.362 M52.000 257.600 C 52.000 257.820,52.180 258.000,52.400 258.000 C 52.620 258.000,52.800 258.236,52.800 258.525 C 52.800 258.813,53.160 259.436,53.600 259.908 C 54.040 260.380,54.400 260.967,54.400 261.212 C 54.400 261.864,55.591 262.946,55.919 262.593 C 56.074 262.427,55.975 262.210,55.700 262.112 C 55.425 262.014,55.200 261.628,55.200 261.255 C 55.200 260.882,54.840 260.317,54.400 260.000 C 53.960 259.683,53.600 259.180,53.600 258.883 C 53.600 258.346,52.666 257.200,52.229 257.200 C 52.103 257.200,52.000 257.380,52.000 257.600 M300.505 258.925 C 296.736 261.471,296.819 261.954,305.608 288.458 C 313.503 312.268,313.784 312.958,316.035 314.081 C 319.962 316.040,319.793 316.164,338.315 297.737 C 361.455 274.714,362.165 277.005,328.412 265.749 C 303.666 257.497,302.897 257.309,300.505 258.925 M56.451 264.298 C 57.486 265.615,58.038 266.095,58.261 265.872 C 58.384 265.749,58.024 265.188,57.461 264.624 C 56.298 263.462,55.622 263.243,56.451 264.298 M58.400 266.862 C 58.400 267.613,59.498 268.635,59.887 268.246 C 60.035 268.098,59.761 267.583,59.278 267.100 C 58.572 266.395,58.400 266.348,58.400 266.862 M60.716 270.213 C 61.422 271.583,63.357 273.328,63.545 272.764 C 63.638 272.486,63.283 271.933,62.757 271.534 C 62.231 271.135,61.462 270.492,61.048 270.104 C 60.326 269.428,60.313 269.432,60.716 270.213 M63.600 273.807 C 63.600 274.209,68.862 279.271,69.067 279.067 C 69.181 278.953,68.091 277.676,66.644 276.230 C 64.178 273.763,63.600 273.303,63.600 273.807 M70.800 281.823 C 71.350 282.470,71.827 283.057,71.860 283.127 C 71.893 283.196,72.005 283.106,72.108 282.927 C 72.211 282.747,71.734 282.160,71.048 281.623 L 69.800 280.645 70.800 281.823 M72.400 283.429 C 72.400 283.851,73.502 284.764,73.733 284.533 C 73.859 284.408,73.713 284.056,73.410 283.752 C 72.833 283.176,72.400 283.037,72.400 283.429 M77.656 288.300 C 78.868 289.753,81.184 291.750,81.403 291.531 C 81.707 291.226,78.331 287.596,77.958 287.826 C 77.761 287.948,77.600 287.857,77.600 287.624 C 77.600 287.391,77.406 287.200,77.170 287.200 C 76.933 287.200,77.152 287.695,77.656 288.300 M83.200 292.646 C 83.200 293.014,86.118 295.616,86.312 295.421 C 86.493 295.240,83.768 292.400,83.413 292.400 C 83.296 292.400,83.200 292.511,83.200 292.646 M88.000 296.629 C 88.000 297.053,89.236 298.097,89.467 297.867 C 89.592 297.741,89.417 297.360,89.076 297.019 C 88.441 296.384,88.000 296.224,88.000 296.629 M90.400 298.229 C 90.400 298.653,91.636 299.697,91.867 299.467 C 91.992 299.341,91.817 298.960,91.476 298.619 C 90.841 297.984,90.400 297.824,90.400 298.229 M93.066 300.333 C 93.140 300.626,93.200 300.941,93.200 301.033 C 93.200 301.125,93.470 301.200,93.800 301.200 C 94.130 301.200,94.400 301.359,94.400 301.553 C 94.400 301.748,94.715 302.018,95.100 302.154 C 95.485 302.289,96.025 302.505,96.300 302.634 C 96.575 302.762,96.800 302.672,96.800 302.433 C 96.800 302.195,96.530 302.000,96.200 302.000 C 95.870 302.000,95.600 301.820,95.600 301.600 C 95.600 301.380,95.330 301.200,95.000 301.200 C 94.670 301.200,94.400 301.020,94.400 300.800 C 94.400 300.580,94.145 300.400,93.833 300.400 C 93.522 300.400,93.191 300.265,93.099 300.100 C 93.007 299.935,92.992 300.040,93.066 300.333 M97.200 303.029 C 97.200 303.421,98.322 304.400,98.771 304.400 C 99.407 304.400,99.292 303.958,98.500 303.357 C 97.756 302.792,97.200 302.652,97.200 303.029 M99.851 304.327 C 99.500 304.885,100.733 306.089,101.298 305.739 C 101.467 305.635,101.714 305.831,101.846 306.175 C 102.129 306.912,103.341 307.032,103.107 306.300 C 103.019 306.025,102.381 305.630,101.688 305.421 C 100.995 305.213,100.373 304.763,100.305 304.421 C 100.207 303.929,100.113 303.909,99.851 304.327 M103.600 307.000 C 103.600 307.330,103.864 307.600,104.187 307.600 C 104.545 307.600,104.685 307.365,104.545 307.000 C 104.418 306.670,104.154 306.400,103.957 306.400 C 103.761 306.400,103.600 306.670,103.600 307.000 M105.200 307.429 C 105.200 307.898,106.365 308.800,106.971 308.800 C 107.317 308.800,107.600 308.980,107.600 309.200 C 107.600 309.420,107.960 309.600,108.400 309.600 C 108.840 309.600,109.200 309.780,109.200 310.000 C 109.200 310.220,109.560 310.400,110.000 310.400 C 110.440 310.400,110.800 310.220,110.800 310.000 C 110.800 309.780,110.440 309.600,110.000 309.600 C 109.560 309.600,109.200 309.420,109.200 309.200 C 109.200 308.980,108.840 308.800,108.400 308.800 C 107.960 308.800,107.600 308.620,107.600 308.400 C 107.600 308.180,107.240 308.000,106.800 308.000 C 106.360 308.000,106.000 307.820,106.000 307.600 C 106.000 307.380,105.820 307.200,105.600 307.200 C 105.380 307.200,105.200 307.303,105.200 307.429 " stroke="none" fill="#40a1e6" fill-rule="evenodd"></path><path id="path1" d="M274.000 12.400 C 274.000 12.620,273.381 12.800,272.624 12.800 C 271.867 12.800,271.136 12.980,271.000 13.200 C 270.864 13.420,270.403 13.600,269.976 13.600 C 269.549 13.600,269.200 13.780,269.200 14.000 C 269.200 14.220,268.750 14.400,268.200 14.400 C 267.650 14.400,267.200 14.580,267.200 14.800 C 267.200 15.020,266.874 15.200,266.475 15.200 C 266.077 15.200,265.364 15.560,264.892 16.000 C 264.420 16.440,263.796 16.800,263.505 16.800 C 263.214 16.800,262.717 17.160,262.400 17.600 C 262.083 18.040,261.665 18.400,261.471 18.400 C 260.919 18.400,256.000 23.533,256.000 24.109 C 256.000 24.392,255.640 24.883,255.200 25.200 C 254.760 25.517,254.400 26.007,254.400 26.288 C 254.400 26.570,254.248 26.800,254.063 26.800 C 253.877 26.800,253.318 27.655,252.819 28.700 C 252.320 29.745,251.752 30.913,251.556 31.295 C 251.360 31.677,251.200 32.262,251.200 32.595 C 251.200 32.928,251.020 33.200,250.800 33.200 C 250.580 33.200,250.400 33.905,250.400 34.767 C 250.400 35.628,250.250 36.393,250.067 36.467 C 249.884 36.540,249.818 63.465,249.920 96.300 L 250.105 156.000 256.253 156.000 L 262.400 156.000 262.375 143.500 C 262.294 103.333,262.764 44.212,263.165 44.078 C 263.418 43.994,263.600 42.860,263.600 41.367 C 263.600 39.922,263.775 38.800,264.000 38.800 C 264.220 38.800,264.400 38.566,264.400 38.280 C 264.400 37.544,265.341 35.607,265.700 35.603 C 265.865 35.601,266.000 35.322,266.000 34.982 C 266.000 34.642,266.436 33.928,266.969 33.395 C 267.502 32.862,268.054 32.060,268.196 31.613 C 268.338 31.166,268.685 30.800,268.968 30.800 C 269.250 30.800,270.016 30.289,270.669 29.665 C 271.321 29.041,272.428 28.278,273.128 27.968 C 273.828 27.658,274.400 27.269,274.400 27.102 C 274.400 26.936,274.760 26.800,275.200 26.800 C 275.640 26.800,276.000 26.620,276.000 26.400 C 276.000 26.171,277.200 26.000,278.800 26.000 C 280.400 26.000,281.600 25.829,281.600 25.600 C 281.600 25.342,285.933 25.200,293.800 25.200 C 301.667 25.200,306.000 25.342,306.000 25.600 C 306.000 25.826,307.133 26.000,308.600 26.000 C 310.067 26.000,311.200 26.174,311.200 26.400 C 311.200 26.620,311.661 26.800,312.224 26.800 C 312.804 26.800,313.140 26.973,313.000 27.200 C 312.864 27.420,313.123 27.600,313.576 27.600 C 314.029 27.600,314.400 27.780,314.400 28.000 C 314.400 28.220,314.672 28.400,315.004 28.400 C 315.336 28.400,316.172 28.940,316.863 29.600 C 317.554 30.260,318.362 30.800,318.659 30.800 C 318.957 30.800,319.200 31.043,319.200 31.341 C 319.200 31.638,319.740 32.446,320.400 33.137 C 321.060 33.828,321.600 34.664,321.600 34.996 C 321.600 35.328,321.780 35.600,322.000 35.600 C 322.220 35.600,322.400 35.971,322.400 36.424 C 322.400 36.877,322.580 37.136,322.800 37.000 C 323.026 36.860,323.200 37.188,323.200 37.753 C 323.200 38.303,323.380 38.864,323.600 39.000 C 323.820 39.136,324.000 40.216,324.000 41.400 C 324.000 42.584,324.180 43.664,324.400 43.800 C 324.664 43.963,324.800 63.137,324.800 100.024 L 324.800 156.000 331.400 156.000 L 338.000 156.000 338.000 96.200 C 338.000 56.600,337.865 36.400,337.600 36.400 C 337.380 36.400,337.200 35.781,337.200 35.024 C 337.200 34.267,337.020 33.536,336.800 33.400 C 336.580 33.264,336.400 32.803,336.400 32.376 C 336.400 31.949,336.220 31.600,336.000 31.600 C 335.780 31.600,335.600 31.276,335.600 30.880 C 335.600 29.986,334.706 28.007,334.300 28.003 C 334.135 28.001,334.000 27.730,334.000 27.400 C 334.000 27.070,333.820 26.800,333.600 26.800 C 333.380 26.800,333.200 26.596,333.200 26.347 C 333.200 26.098,332.851 25.591,332.425 25.222 C 331.999 24.852,331.594 24.303,331.525 24.002 C 331.344 23.210,326.511 18.400,325.896 18.400 C 325.610 18.400,325.117 18.040,324.800 17.600 C 324.483 17.160,323.993 16.800,323.712 16.800 C 323.430 16.800,323.200 16.620,323.200 16.400 C 323.200 16.180,322.930 16.000,322.600 16.000 C 322.270 16.000,321.999 15.865,321.997 15.700 C 321.993 15.294,320.014 14.400,319.120 14.400 C 318.724 14.400,318.400 14.220,318.400 14.000 C 318.400 13.780,318.051 13.600,317.624 13.600 C 317.197 13.600,316.736 13.420,316.600 13.200 C 316.464 12.980,315.733 12.800,314.976 12.800 C 314.219 12.800,313.600 12.620,313.600 12.400 C 313.600 12.139,306.733 12.000,293.800 12.000 C 280.867 12.000,274.000 12.139,274.000 12.400 M218.667 362.667 C 218.235 363.099,218.358 368.400,218.800 368.400 C 219.020 368.400,219.200 368.940,219.200 369.600 C 219.200 370.260,219.380 370.800,219.600 370.800 C 219.820 370.800,220.000 371.160,220.000 371.600 C 220.000 372.040,220.180 372.400,220.400 372.400 C 220.620 372.400,220.800 372.583,220.800 372.806 C 220.800 373.030,222.147 374.560,223.794 376.206 C 225.440 377.853,226.970 379.200,227.194 379.200 C 227.417 379.200,227.600 379.380,227.600 379.600 C 227.600 379.820,227.960 380.000,228.400 380.000 C 228.840 380.000,229.200 380.180,229.200 380.400 C 229.200 380.620,229.740 380.800,230.400 380.800 C 231.060 380.800,231.600 380.980,231.600 381.200 C 231.600 381.448,233.800 381.600,237.400 381.600 C 241.000 381.600,243.200 381.448,243.200 381.200 C 243.200 380.980,243.740 380.800,244.400 380.800 C 245.060 380.800,245.600 380.620,245.600 380.400 C 245.600 380.180,245.960 380.000,246.400 380.000 C 246.840 380.000,247.200 379.820,247.200 379.600 C 247.200 379.380,247.482 379.200,247.827 379.200 C 249.466 379.200,256.000 371.193,256.000 369.186 C 256.000 368.780,256.180 368.336,256.400 368.200 C 257.101 367.767,256.898 362.923,256.167 362.643 C 255.301 362.310,219.000 362.333,218.667 362.667 M325.071 362.663 C 324.011 363.722,325.248 370.535,326.947 373.000 C 328.173 374.779,332.808 379.200,333.446 379.200 C 333.751 379.200,334.000 379.380,334.000 379.600 C 334.000 379.820,334.360 380.000,334.800 380.000 C 335.240 380.000,335.600 380.180,335.600 380.400 C 335.600 380.620,336.140 380.800,336.800 380.800 C 337.460 380.800,338.000 380.980,338.000 381.200 C 338.000 381.448,340.200 381.600,343.800 381.600 C 347.400 381.600,349.600 381.448,349.600 381.200 C 349.600 380.980,350.140 380.800,350.800 380.800 C 351.460 380.800,352.000 380.620,352.000 380.400 C 352.000 380.180,352.360 380.000,352.800 380.000 C 353.240 380.000,353.600 379.820,353.600 379.600 C 353.600 379.380,353.848 379.200,354.152 379.200 C 354.905 379.200,360.400 373.581,360.400 372.811 C 360.400 372.585,360.580 372.400,360.800 372.400 C 361.020 372.400,361.200 372.040,361.200 371.600 C 361.200 371.160,361.380 370.800,361.600 370.800 C 361.820 370.800,362.000 370.260,362.000 369.600 C 362.000 368.940,362.188 368.400,362.418 368.400 C 362.680 368.400,362.791 367.323,362.718 365.500 L 362.600 362.600 343.971 362.496 C 333.724 362.439,325.219 362.514,325.071 362.663 " stroke="none" fill="#525a5b" fill-rule="evenodd"></path><path id="path2" d="M87.290 49.840 L 87.498 81.280 70.264 80.984 C 51.822 80.667,52.000 80.690,52.000 78.629 C 52.000 78.063,51.820 77.600,51.600 77.600 C 51.380 77.600,51.200 77.161,51.200 76.624 C 51.200 76.087,51.020 75.536,50.800 75.400 C 50.580 75.264,50.400 74.634,50.400 74.000 C 50.400 73.366,50.220 72.736,50.000 72.600 C 49.780 72.464,49.600 71.823,49.600 71.176 C 49.600 70.529,49.420 70.000,49.200 70.000 C 48.980 70.000,48.800 69.460,48.800 68.800 C 48.800 68.140,48.620 67.600,48.400 67.600 C 48.180 67.600,48.000 67.060,48.000 66.400 C 48.000 65.740,47.820 65.200,47.600 65.200 C 47.380 65.200,47.200 64.660,47.200 64.000 C 47.200 63.340,47.020 62.800,46.800 62.800 C 46.580 62.800,46.400 62.249,46.400 61.576 C 46.400 60.863,46.233 60.456,46.000 60.600 C 45.767 60.744,45.600 60.337,45.600 59.624 C 45.600 58.951,45.420 58.400,45.200 58.400 C 44.980 58.400,44.800 57.860,44.800 57.200 L 44.800 56.000 31.600 56.000 L 18.400 56.000 18.400 100.000 L 18.400 144.000 26.700 143.949 C 31.265 143.921,36.974 143.786,39.386 143.649 L 43.773 143.400 44.444 141.400 C 44.813 140.300,46.235 135.890,47.603 131.600 C 48.972 127.310,50.465 122.675,50.922 121.300 L 51.752 118.800 69.676 118.800 L 87.600 118.800 87.600 150.000 L 87.600 181.200 100.017 181.200 L 112.435 181.200 114.162 177.500 C 115.838 173.908,116.868 171.675,119.052 166.900 C 119.630 165.635,121.070 162.553,122.252 160.050 C 123.433 157.548,124.400 155.453,124.400 155.395 C 124.400 155.337,125.276 153.425,126.346 151.145 C 127.417 148.865,128.746 146.010,129.300 144.800 C 131.504 139.987,132.896 136.973,134.172 134.251 C 134.907 132.683,136.082 130.140,136.783 128.600 C 137.485 127.060,138.795 124.225,139.694 122.300 L 141.330 118.800 162.165 118.786 C 187.780 118.768,188.978 118.558,194.402 113.134 C 204.813 102.723,199.721 85.226,185.274 81.772 C 183.513 81.351,178.302 81.225,162.160 81.214 L 141.321 81.200 139.494 77.300 C 138.489 75.155,137.112 72.185,136.434 70.700 C 134.189 65.788,132.780 62.736,131.425 59.851 C 130.688 58.283,129.722 56.190,129.278 55.200 C 128.834 54.210,127.740 51.826,126.847 49.902 C 125.954 47.978,125.325 46.140,125.448 45.818 C 125.572 45.496,125.217 44.235,124.659 43.016 C 124.101 41.797,123.769 40.797,123.922 40.794 C 124.075 40.791,124.020 40.656,123.800 40.494 C 123.212 40.062,122.400 38.503,122.400 37.805 C 122.400 37.472,122.220 37.200,122.000 37.200 C 121.780 37.200,121.600 36.750,121.600 36.200 C 121.600 35.650,121.420 35.200,121.200 35.200 C 120.980 35.200,120.800 34.750,120.800 34.200 C 120.800 33.650,120.620 33.200,120.400 33.200 C 120.180 33.200,120.000 32.840,120.000 32.400 C 120.000 31.960,119.820 31.600,119.600 31.600 C 119.380 31.600,119.200 31.255,119.200 30.833 C 119.200 30.412,119.057 30.007,118.881 29.933 C 118.451 29.753,116.800 26.161,116.800 25.404 C 116.800 25.072,116.620 24.800,116.400 24.800 C 116.180 24.800,116.000 24.440,116.000 24.000 C 116.000 23.560,115.820 23.200,115.600 23.200 C 115.380 23.200,115.200 22.840,115.200 22.400 C 115.200 21.960,115.020 21.600,114.800 21.600 C 114.580 21.600,114.400 21.240,114.400 20.800 C 114.400 20.360,114.220 20.000,114.000 20.000 C 113.780 20.000,113.600 19.640,113.600 19.200 C 113.600 18.416,113.333 18.400,100.341 18.400 L 87.082 18.400 87.290 49.840 M253.300 156.297 C 255.005 156.372,257.795 156.372,259.500 156.297 C 261.205 156.222,259.810 156.161,256.400 156.161 C 252.990 156.161,251.595 156.222,253.300 156.297 M328.319 156.298 C 330.144 156.372,333.024 156.372,334.719 156.297 C 336.414 156.222,334.920 156.161,331.400 156.162 C 327.880 156.162,326.494 156.224,328.319 156.298 M250.578 202.751 C 240.446 212.788,230.558 222.665,228.605 224.701 L 225.054 228.402 228.227 231.810 C 233.520 237.495,243.532 247.600,243.871 247.600 C 244.047 247.600,246.830 250.235,250.055 253.455 L 255.920 259.310 262.151 253.055 C 265.579 249.615,268.521 246.797,268.691 246.793 C 268.861 246.789,271.700 244.014,275.000 240.626 C 278.300 237.239,285.185 230.221,290.300 225.030 C 295.415 219.839,299.600 215.464,299.600 215.307 C 299.600 215.150,295.351 210.697,290.157 205.411 C 275.942 190.943,272.952 187.954,270.888 186.151 L 269.000 184.501 250.578 202.751 M345.800 271.200 C 346.901 271.673,347.292 271.673,347.000 271.200 C 346.864 270.980,346.358 270.813,345.876 270.828 C 345.031 270.855,345.029 270.869,345.800 271.200 M354.901 278.600 C 354.905 279.480,354.987 279.793,355.083 279.295 C 355.179 278.798,355.175 278.078,355.075 277.695 C 354.975 277.313,354.896 277.720,354.901 278.600 M350.192 286.500 L 346.600 290.200 350.300 286.608 C 352.335 284.633,354.000 282.968,354.000 282.908 C 354.000 282.618,353.528 283.064,350.192 286.500 M313.798 313.137 C 314.234 313.652,314.953 314.259,315.396 314.486 C 316.245 314.921,316.121 314.787,314.203 313.194 C 313.048 312.235,313.034 312.233,313.798 313.137 " stroke="none" fill="#eb646c" fill-rule="evenodd"></path><path id="path3" d="M262.800 156.400 L 209.000 156.600 207.200 157.461 C 204.064 158.962,201.433 162.084,200.510 165.400 C 199.577 168.754,199.662 354.293,200.598 356.200 C 201.520 358.078,204.511 361.200,205.389 361.200 C 205.725 361.200,206.000 361.380,206.000 361.600 C 206.000 361.820,206.360 362.000,206.800 362.000 C 207.240 362.000,207.600 362.140,207.600 362.310 C 207.600 362.481,244.950 362.619,290.600 362.618 C 336.250 362.617,373.600 362.477,373.600 362.308 C 373.600 362.139,373.960 362.000,374.400 362.000 C 374.840 362.000,375.200 361.820,375.200 361.600 C 375.200 361.380,375.475 361.200,375.811 361.200 C 376.685 361.200,379.641 358.088,380.700 356.054 L 381.600 354.324 381.600 259.186 C 381.600 196.192,381.465 163.964,381.200 163.800 C 380.980 163.664,380.800 163.203,380.800 162.776 C 380.800 162.349,380.620 162.000,380.400 162.000 C 380.180 162.000,380.000 161.796,380.000 161.547 C 380.000 160.848,376.587 157.600,375.853 157.600 C 375.494 157.600,375.200 157.420,375.200 157.200 C 375.200 156.980,374.840 156.800,374.400 156.800 C 373.960 156.800,373.600 156.612,373.600 156.382 C 373.600 156.095,364.708 156.002,345.100 156.082 C 329.425 156.147,292.390 156.290,262.800 156.400 M276.745 191.800 C 288.754 203.902,299.600 215.057,299.600 215.307 C 299.600 215.464,295.415 219.839,290.300 225.030 C 285.185 230.221,278.300 237.239,275.000 240.626 C 271.700 244.014,268.861 246.789,268.691 246.793 C 268.521 246.797,265.579 249.615,262.151 253.055 L 255.920 259.310 250.055 253.455 C 246.830 250.235,244.047 247.600,243.871 247.600 C 243.532 247.600,233.520 237.495,228.227 231.810 L 225.054 228.402 228.605 224.701 C 230.558 222.665,240.446 212.788,250.578 202.751 L 269.000 184.501 270.888 186.151 C 271.926 187.058,274.562 189.600,276.745 191.800 M307.039 258.064 C 307.154 258.249,307.676 258.400,308.200 258.400 C 308.724 258.400,309.264 258.580,309.400 258.800 C 309.536 259.020,310.076 259.200,310.600 259.200 C 311.124 259.200,311.664 259.380,311.800 259.600 C 311.936 259.820,312.476 260.000,313.000 260.000 C 313.524 260.000,314.064 260.180,314.200 260.400 C 314.336 260.620,314.799 260.800,315.228 260.800 C 315.657 260.800,316.772 261.152,317.704 261.583 C 319.928 262.610,343.146 270.282,345.093 270.633 C 345.922 270.782,346.780 271.035,347.000 271.194 C 347.220 271.353,348.291 271.735,349.379 272.042 C 353.417 273.180,355.553 276.327,354.974 280.280 C 354.660 282.422,324.613 312.916,321.266 314.490 C 317.973 316.038,314.540 314.911,313.035 311.788 C 312.614 310.914,312.119 309.887,311.935 309.505 C 311.751 309.123,311.600 308.459,311.600 308.029 C 311.600 307.599,311.420 307.136,311.200 307.000 C 310.980 306.864,310.800 306.324,310.800 305.800 C 310.800 305.276,310.620 304.736,310.400 304.600 C 310.180 304.464,310.000 303.924,310.000 303.400 C 310.000 302.876,309.820 302.336,309.600 302.200 C 309.380 302.064,309.200 301.524,309.200 301.000 C 309.200 300.476,309.020 299.936,308.800 299.800 C 308.580 299.664,308.400 299.149,308.400 298.656 C 308.400 298.163,308.251 297.589,308.070 297.380 C 307.888 297.171,307.505 296.190,307.219 295.200 C 306.932 294.210,304.651 287.137,302.149 279.482 C 296.584 262.457,296.461 260.880,300.496 258.388 C 301.844 257.555,306.580 257.320,307.039 258.064 " stroke="none" fill="#f99e36" fill-rule="evenodd"></path><path id="path4" d="M163.200 37.600 C 163.200 37.839,161.667 38.000,159.400 38.000 C 157.133 38.000,155.600 38.161,155.600 38.400 C 155.600 38.622,154.533 38.800,153.200 38.800 C 151.867 38.800,150.800 38.978,150.800 39.200 C 150.800 39.420,149.900 39.600,148.800 39.600 C 147.700 39.600,146.800 39.780,146.800 40.000 C 146.800 40.220,145.990 40.400,145.000 40.400 C 144.010 40.400,143.200 40.580,143.200 40.800 C 143.200 41.020,142.480 41.200,141.600 41.200 C 140.709 41.200,140.000 41.394,140.000 41.637 C 140.000 41.910,139.411 42.007,138.434 41.894 C 137.157 41.746,136.911 41.824,137.101 42.318 C 137.294 42.823,137.056 42.879,135.666 42.657 C 134.287 42.436,134.000 42.502,134.000 43.039 C 134.000 43.523,133.757 43.626,133.042 43.446 C 132.384 43.281,132.009 43.399,131.847 43.822 C 131.665 44.297,131.274 44.375,130.147 44.164 C 129.099 43.967,128.764 44.018,128.966 44.345 C 129.148 44.640,128.887 44.800,128.224 44.800 C 127.661 44.800,127.200 44.980,127.200 45.200 C 127.200 45.420,126.851 45.600,126.424 45.600 C 125.077 45.600,125.159 46.212,127.045 50.257 C 128.057 52.426,129.335 55.190,129.886 56.400 C 130.436 57.610,131.500 59.906,132.249 61.501 C 132.999 63.097,134.084 65.437,134.662 66.701 C 135.239 67.966,136.463 70.620,137.382 72.600 C 138.300 74.580,139.567 77.325,140.196 78.700 L 141.340 81.200 162.370 81.205 C 185.145 81.210,185.392 81.230,189.948 83.451 C 194.985 85.906,200.000 93.359,200.000 98.389 C 200.000 99.090,200.153 99.220,200.700 98.986 C 204.905 97.189,215.538 94.126,220.054 93.411 C 221.896 93.120,226.695 90.111,233.821 84.780 C 243.183 77.777,247.325 75.215,249.300 75.204 C 249.944 75.200,250.000 74.543,250.000 67.033 C 250.000 58.220,249.917 57.600,248.734 57.600 C 248.304 57.600,248.064 57.420,248.200 57.200 C 248.336 56.980,248.167 56.800,247.824 56.800 C 247.481 56.800,247.200 56.620,247.200 56.400 C 247.200 56.180,246.840 56.000,246.400 56.000 C 245.960 56.000,245.600 55.820,245.600 55.600 C 245.600 55.380,245.240 55.200,244.800 55.200 C 244.360 55.200,244.000 55.020,244.000 54.800 C 244.000 54.580,243.640 54.400,243.200 54.400 C 242.760 54.400,242.400 54.220,242.400 54.000 C 242.400 53.780,242.040 53.600,241.600 53.600 C 241.160 53.600,240.800 53.420,240.800 53.200 C 240.800 52.980,240.530 52.800,240.200 52.800 C 239.870 52.800,239.600 52.620,239.600 52.400 C 239.600 52.180,239.240 52.000,238.800 52.000 C 238.360 52.000,238.000 51.820,238.000 51.600 C 238.000 51.380,237.640 51.200,237.200 51.200 C 236.760 51.200,236.400 51.020,236.400 50.800 C 236.400 50.580,236.040 50.400,235.600 50.400 C 235.160 50.400,234.800 50.220,234.800 50.000 C 234.800 49.780,234.350 49.600,233.800 49.600 C 233.250 49.600,232.800 49.420,232.800 49.200 C 232.800 48.980,232.440 48.800,232.000 48.800 C 231.560 48.800,231.200 48.620,231.200 48.400 C 231.200 48.180,230.750 48.000,230.200 48.000 C 229.650 48.000,229.200 47.820,229.200 47.600 C 229.200 47.380,228.840 47.200,228.400 47.200 C 227.960 47.200,227.600 47.020,227.600 46.800 C 227.600 46.580,227.060 46.400,226.400 46.400 C 225.740 46.400,225.200 46.220,225.200 46.000 C 225.200 45.780,224.750 45.600,224.200 45.600 C 223.650 45.600,223.200 45.399,223.200 45.153 C 223.200 44.889,222.779 44.787,222.168 44.904 C 221.508 45.030,221.060 44.900,220.923 44.543 C 220.797 44.216,220.270 44.029,219.654 44.092 C 218.961 44.163,218.636 44.022,218.706 43.681 C 218.785 43.298,218.457 43.228,217.462 43.415 C 216.409 43.612,216.055 43.519,215.852 42.992 C 215.664 42.500,215.320 42.384,214.596 42.565 C 213.844 42.754,213.600 42.658,213.600 42.172 C 213.600 41.644,213.315 41.578,212.000 41.800 C 210.948 41.978,210.400 41.921,210.400 41.635 C 210.400 41.394,209.686 41.200,208.800 41.200 C 207.920 41.200,207.200 41.020,207.200 40.800 C 207.200 40.580,206.300 40.400,205.200 40.400 C 204.100 40.400,203.200 40.220,203.200 40.000 C 203.200 39.780,202.300 39.600,201.200 39.600 C 200.100 39.600,199.200 39.420,199.200 39.200 C 199.200 38.974,198.067 38.800,196.600 38.800 C 195.133 38.800,194.000 38.626,194.000 38.400 C 194.000 38.163,192.533 38.000,190.400 38.000 C 188.267 38.000,186.800 37.837,186.800 37.600 C 186.800 37.342,182.600 37.200,175.000 37.200 C 167.400 37.200,163.200 37.342,163.200 37.600 M291.400 98.129 C 290.995 98.633,286.147 104.225,285.403 105.045 C 285.182 105.290,284.010 106.636,282.800 108.037 C 281.590 109.438,279.340 112.018,277.800 113.770 C 276.260 115.523,272.165 120.193,268.700 124.150 L 262.400 131.343 262.400 143.874 L 262.400 156.406 289.500 156.303 L 316.600 156.200 316.724 154.700 C 316.796 153.832,316.670 153.200,316.424 153.200 C 316.182 153.200,316.000 152.343,316.000 151.200 C 316.000 150.100,315.820 149.200,315.600 149.200 C 315.380 149.200,315.200 148.480,315.200 147.600 C 315.200 146.720,315.020 146.000,314.800 146.000 C 314.580 146.000,314.400 145.370,314.400 144.600 C 314.400 143.830,314.220 143.200,314.000 143.200 C 313.780 143.200,313.600 142.570,313.600 141.800 C 313.600 141.030,313.420 140.400,313.200 140.400 C 312.980 140.400,312.800 139.860,312.800 139.200 C 312.800 138.540,312.620 138.000,312.400 138.000 C 312.180 138.000,312.000 137.460,312.000 136.800 C 312.000 136.140,311.820 135.600,311.600 135.600 C 311.380 135.600,311.200 135.060,311.200 134.400 C 311.200 133.740,311.020 133.200,310.800 133.200 C 310.580 133.200,310.400 132.750,310.400 132.200 C 310.400 131.650,310.220 131.200,310.000 131.200 C 309.780 131.200,309.600 130.660,309.600 130.000 C 309.600 129.340,309.420 128.800,309.200 128.800 C 308.980 128.800,308.800 128.440,308.800 128.000 C 308.800 127.560,308.620 127.200,308.400 127.200 C 308.180 127.200,308.000 126.750,308.000 126.200 C 308.000 125.650,307.800 125.200,307.557 125.200 C 307.283 125.200,307.210 124.816,307.364 124.200 C 307.553 123.448,307.458 123.200,306.981 123.200 C 306.528 123.200,306.419 122.971,306.600 122.400 C 306.783 121.824,306.672 121.600,306.203 121.600 C 305.846 121.600,305.657 121.432,305.784 121.226 C 305.911 121.020,305.652 120.205,305.208 119.414 C 304.763 118.623,304.400 117.711,304.400 117.388 C 304.400 117.065,304.220 116.800,304.000 116.800 C 303.780 116.800,303.600 116.440,303.600 116.000 C 303.600 115.560,303.454 115.200,303.275 115.200 C 303.096 115.200,302.702 114.570,302.400 113.800 C 302.098 113.030,301.704 112.400,301.525 112.400 C 301.346 112.400,301.200 112.040,301.200 111.600 C 301.200 111.160,301.020 110.800,300.800 110.800 C 300.580 110.800,300.400 110.440,300.400 110.000 C 300.400 109.560,300.220 109.200,300.000 109.200 C 299.780 109.200,299.600 108.919,299.600 108.576 C 299.600 108.233,299.420 108.064,299.200 108.200 C 298.980 108.336,298.800 108.077,298.800 107.624 C 298.800 107.171,298.620 106.800,298.400 106.800 C 298.180 106.800,298.000 106.480,298.000 106.088 C 298.000 105.697,297.640 105.117,297.200 104.800 C 296.760 104.483,296.400 103.943,296.400 103.600 C 296.400 103.257,296.040 102.717,295.600 102.400 C 295.160 102.083,294.800 101.593,294.800 101.312 C 294.800 101.030,294.620 100.800,294.400 100.800 C 294.180 100.800,294.000 100.530,294.000 100.200 C 294.000 99.870,293.820 99.600,293.600 99.600 C 293.380 99.600,293.200 99.259,293.200 98.843 C 293.200 98.426,292.915 97.976,292.567 97.843 C 291.797 97.547,291.884 97.526,291.400 98.129 M50.141 123.903 C 49.229 126.706,47.438 132.279,46.160 136.287 L 43.838 143.574 39.819 143.687 L 35.800 143.800 35.675 145.100 C 35.606 145.815,35.381 146.400,35.175 146.400 C 34.969 146.400,34.800 147.120,34.800 148.000 C 34.800 148.880,34.620 149.600,34.400 149.600 C 34.180 149.600,34.000 150.410,34.000 151.400 C 34.000 152.390,33.820 153.200,33.600 153.200 C 33.380 153.200,33.200 154.100,33.200 155.200 C 33.200 156.300,33.020 157.200,32.800 157.200 C 32.571 157.200,32.400 158.400,32.400 160.000 C 32.400 161.600,32.229 162.800,32.000 162.800 C 31.761 162.800,31.600 164.341,31.600 166.624 C 31.600 169.071,31.456 170.358,31.200 170.200 C 30.937 170.037,30.800 173.796,30.800 181.176 C 30.800 188.392,30.943 192.400,31.200 192.400 C 31.437 192.400,31.600 193.867,31.600 196.000 C 31.600 198.133,31.763 199.600,32.000 199.600 C 32.229 199.600,32.400 200.800,32.400 202.400 C 32.400 204.000,32.571 205.200,32.800 205.200 C 33.020 205.200,33.200 206.100,33.200 207.200 C 33.200 208.300,33.380 209.200,33.600 209.200 C 33.820 209.200,34.000 210.100,34.000 211.200 C 34.000 212.300,34.180 213.200,34.400 213.200 C 34.620 213.200,34.800 213.830,34.800 214.600 C 34.800 215.370,34.980 216.000,35.200 216.000 C 35.420 216.000,35.600 216.821,35.600 217.824 C 35.600 218.937,35.756 219.551,36.000 219.400 C 36.238 219.253,36.400 219.729,36.400 220.576 C 36.400 221.359,36.580 222.000,36.800 222.000 C 37.020 222.000,37.200 222.540,37.200 223.200 C 37.200 223.860,37.380 224.400,37.600 224.400 C 37.820 224.400,38.000 225.030,38.000 225.800 C 38.000 226.570,38.180 227.200,38.400 227.200 C 38.620 227.200,38.800 227.650,38.800 228.200 C 38.800 228.750,38.980 229.200,39.200 229.200 C 39.420 229.200,39.600 229.650,39.600 230.200 C 39.600 230.750,39.780 231.200,40.000 231.200 C 40.220 231.200,40.400 231.740,40.400 232.400 C 40.400 233.060,40.580 233.600,40.800 233.600 C 41.020 233.600,41.200 234.050,41.200 234.600 C 41.200 235.150,41.401 235.600,41.647 235.600 C 41.903 235.600,42.015 236.011,41.909 236.563 C 41.769 237.295,41.869 237.472,42.322 237.298 C 42.785 237.120,42.873 237.307,42.715 238.135 C 42.574 238.872,42.681 239.200,43.063 239.200 C 43.461 239.200,43.541 239.497,43.349 240.260 C 43.162 241.005,43.219 241.235,43.542 241.036 C 43.843 240.850,44.000 241.126,44.000 241.843 C 44.000 242.443,44.117 242.816,44.261 242.673 C 44.560 242.373,45.600 244.216,45.600 245.046 C 45.600 245.351,45.780 245.600,46.000 245.600 C 46.220 245.600,46.400 245.960,46.400 246.400 C 46.400 246.840,46.580 247.200,46.800 247.200 C 47.020 247.200,47.200 247.560,47.200 248.000 C 47.200 248.440,47.346 248.800,47.525 248.800 C 47.704 248.800,48.098 249.430,48.400 250.200 C 48.702 250.970,49.096 251.600,49.275 251.600 C 49.454 251.600,49.600 251.960,49.600 252.400 C 49.600 252.840,49.780 253.200,50.000 253.200 C 50.220 253.200,50.400 253.470,50.400 253.800 C 50.400 254.130,50.580 254.400,50.800 254.400 C 51.020 254.400,51.200 254.670,51.200 255.000 C 51.200 255.330,51.399 255.600,51.643 255.600 C 51.886 255.600,51.988 255.854,51.869 256.164 C 51.748 256.479,52.082 257.050,52.626 257.459 C 53.162 257.861,53.600 258.467,53.600 258.807 C 53.600 259.146,53.960 259.683,54.400 260.000 C 54.840 260.317,55.200 260.897,55.200 261.288 C 55.200 261.680,55.380 262.000,55.600 262.000 C 55.820 262.000,56.000 262.288,56.000 262.640 C 56.000 262.991,56.540 263.783,57.200 264.400 C 57.860 265.017,58.400 265.691,58.400 265.898 C 58.400 266.106,58.763 266.604,59.206 267.005 C 59.732 267.482,59.925 268.005,59.763 268.517 C 59.619 268.971,59.675 269.201,59.897 269.064 C 60.107 268.934,60.493 269.227,60.754 269.715 C 61.016 270.203,61.763 270.908,62.415 271.283 C 63.067 271.657,63.600 272.250,63.600 272.601 C 63.600 272.952,64.860 274.481,66.400 276.000 C 67.940 277.519,69.200 278.984,69.200 279.256 C 69.200 279.528,70.286 280.797,71.613 282.075 C 72.940 283.354,73.927 284.400,73.806 284.400 C 73.685 284.400,74.234 285.030,75.027 285.800 C 75.820 286.570,76.723 287.200,77.034 287.200 C 77.345 287.200,77.600 287.391,77.600 287.624 C 77.600 287.857,77.754 287.952,77.942 287.836 C 78.130 287.720,79.255 288.699,80.442 290.012 C 81.629 291.324,82.824 292.399,83.098 292.399 C 83.372 292.400,84.515 293.300,85.639 294.400 C 86.762 295.500,87.893 296.400,88.152 296.400 C 88.411 296.400,88.883 296.760,89.200 297.200 C 89.517 297.640,90.031 298.000,90.341 298.000 C 90.976 298.000,92.397 299.487,92.406 300.161 C 92.409 300.403,92.587 300.330,92.800 300.000 C 93.058 299.600,93.190 299.567,93.194 299.900 C 93.197 300.175,93.470 300.400,93.800 300.400 C 94.130 300.400,94.400 300.580,94.400 300.800 C 94.400 301.020,94.670 301.200,95.000 301.200 C 95.330 301.200,95.600 301.380,95.600 301.600 C 95.600 301.820,95.870 302.000,96.200 302.000 C 96.530 302.000,96.800 302.180,96.800 302.400 C 96.800 302.620,97.036 302.800,97.325 302.800 C 97.613 302.800,98.245 303.169,98.730 303.620 C 99.214 304.072,99.788 304.331,100.005 304.197 C 100.222 304.063,100.400 304.233,100.400 304.576 C 100.400 304.933,100.742 305.200,101.200 305.200 C 101.640 305.200,102.345 305.545,102.767 305.967 C 103.188 306.388,103.652 306.615,103.797 306.470 C 103.942 306.325,104.231 306.513,104.441 306.887 C 104.651 307.263,105.084 307.466,105.411 307.341 C 105.735 307.216,106.000 307.314,106.000 307.557 C 106.000 307.801,106.360 308.000,106.800 308.000 C 107.240 308.000,107.600 308.180,107.600 308.400 C 107.600 308.620,107.960 308.800,108.400 308.800 C 108.840 308.800,109.200 308.980,109.200 309.200 C 109.200 309.420,109.560 309.600,110.000 309.600 C 110.440 309.600,110.800 309.780,110.800 310.000 C 110.800 310.220,111.160 310.400,111.600 310.400 C 112.040 310.400,112.400 310.580,112.400 310.800 C 112.400 311.020,112.655 311.200,112.967 311.200 C 113.278 311.200,113.604 311.412,113.691 311.672 C 114.075 312.824,115.539 310.961,123.099 299.701 C 131.812 286.724,131.239 287.899,132.815 279.800 C 133.329 277.158,134.053 273.501,134.400 271.800 C 134.579 270.920,134.939 269.120,135.200 267.800 C 135.461 266.480,135.821 264.680,136.001 263.800 C 136.180 262.920,136.533 261.043,136.784 259.629 C 137.035 258.215,137.320 256.929,137.418 256.772 C 137.611 256.459,136.293 250.466,134.434 243.200 C 131.252 230.766,128.315 223.079,125.135 218.867 C 121.713 214.335,121.498 209.871,123.977 194.800 C 124.393 192.270,124.853 189.152,124.999 187.871 C 125.463 183.805,128.414 178.810,134.140 172.400 C 135.810 170.530,137.182 168.884,137.188 168.742 C 137.202 168.428,123.583 157.477,123.414 157.666 C 123.348 157.740,122.894 158.700,122.405 159.800 C 121.915 160.900,120.901 163.106,120.152 164.701 C 119.402 166.297,118.322 168.637,117.752 169.901 C 115.990 173.811,113.209 179.770,112.852 180.400 C 112.564 180.910,110.636 181.016,100.059 181.106 L 87.605 181.211 87.502 150.106 L 87.400 119.000 69.600 118.903 L 51.800 118.805 50.141 123.903 M233.800 139.438 C 225.880 141.721,208.150 146.398,194.400 149.832 C 180.650 153.265,169.190 156.283,168.933 156.537 C 168.676 156.792,165.728 163.840,162.381 172.200 L 156.296 187.400 153.147 203.077 L 149.998 218.754 159.245 231.077 C 175.878 253.241,179.061 258.320,190.280 280.587 L 199.960 299.800 199.980 233.446 C 200.001 163.300,199.945 165.437,201.851 162.351 C 205.464 156.501,205.946 156.400,230.115 156.400 L 250.200 156.401 250.087 145.800 L 249.974 135.200 249.087 135.243 C 248.599 135.267,241.720 137.155,233.800 139.438 M300.496 258.398 C 298.632 259.535,297.603 261.427,297.601 263.725 C 297.600 265.596,298.707 269.826,299.096 269.437 C 299.203 269.331,299.000 268.392,298.645 267.350 C 297.361 263.584,298.065 260.541,300.599 258.900 C 302.626 257.587,304.512 257.759,310.668 259.816 C 313.657 260.814,316.172 261.561,316.257 261.476 C 316.342 261.391,313.893 260.484,310.813 259.461 C 304.627 257.405,302.487 257.184,300.496 258.398 M317.800 262.152 C 319.998 263.105,330.447 266.486,330.630 266.303 C 330.729 266.204,327.751 265.105,324.011 263.862 C 317.361 261.649,315.392 261.108,317.800 262.152 M331.600 266.800 C 331.930 267.013,332.470 267.188,332.800 267.188 C 333.333 267.188,333.333 267.145,332.800 266.800 C 332.470 266.587,331.930 266.412,331.600 266.412 C 331.067 266.412,331.067 266.455,331.600 266.800 M334.000 267.600 C 334.330 267.813,334.870 267.988,335.200 267.988 C 335.733 267.988,335.733 267.945,335.200 267.600 C 334.870 267.387,334.330 267.212,334.000 267.212 C 333.467 267.212,333.467 267.255,334.000 267.600 M336.400 268.400 C 336.730 268.613,337.270 268.788,337.600 268.788 C 338.133 268.788,338.133 268.745,337.600 268.400 C 337.270 268.187,336.730 268.012,336.400 268.012 C 335.867 268.012,335.867 268.055,336.400 268.400 M338.437 268.971 C 338.779 269.312,344.890 271.243,345.068 271.065 C 345.168 270.965,343.844 270.414,342.124 269.841 C 339.148 268.850,338.060 268.593,338.437 268.971 M299.212 270.400 C 299.212 270.730,299.387 271.270,299.600 271.600 C 299.945 272.133,299.988 272.133,299.988 271.600 C 299.988 271.270,299.813 270.730,299.600 270.400 C 299.255 269.867,299.212 269.867,299.212 270.400 M345.600 271.367 C 345.600 271.458,346.877 271.929,348.437 272.411 C 350.118 272.932,351.856 273.800,352.702 274.543 C 353.706 275.425,353.972 275.544,353.598 274.945 C 352.889 273.809,351.360 272.946,348.370 271.990 C 345.704 271.139,345.600 271.115,345.600 271.367 M300.012 272.800 C 300.012 273.130,300.187 273.670,300.400 274.000 C 300.745 274.533,300.788 274.533,300.788 274.000 C 300.788 273.670,300.613 273.130,300.400 272.800 C 300.055 272.267,300.012 272.267,300.012 272.800 M300.812 275.200 C 300.812 275.530,300.987 276.070,301.200 276.400 C 301.545 276.933,301.588 276.933,301.588 276.400 C 301.588 276.070,301.413 275.530,301.200 275.200 C 300.855 274.667,300.812 274.667,300.812 275.200 M301.612 277.600 C 301.612 277.930,301.787 278.470,302.000 278.800 C 302.345 279.333,302.388 279.333,302.388 278.800 C 302.388 278.470,302.213 277.930,302.000 277.600 C 301.655 277.067,301.612 277.067,301.612 277.600 M302.399 279.833 C 302.397 280.441,311.329 306.804,311.484 306.649 C 311.635 306.498,302.871 279.938,302.572 279.639 C 302.477 279.544,302.400 279.632,302.399 279.833 M354.245 280.873 C 353.971 282.243,324.171 312.376,321.449 314.035 C 319.993 314.924,320.339 315.065,321.920 314.228 C 322.514 313.913,330.054 306.578,338.675 297.928 C 353.297 283.256,355.590 280.657,354.701 279.767 C 354.593 279.660,354.388 280.158,354.245 280.873 M313.200 311.864 C 313.200 312.082,313.695 312.697,314.300 313.230 L 315.400 314.200 314.400 313.000 C 313.850 312.340,313.355 311.725,313.300 311.633 C 313.245 311.542,313.200 311.645,313.200 311.864 " stroke="none" fill="#94db5c" fill-rule="evenodd"></path></g></svg>